<svg xmlns="http://www.w3.org/2000/svg" width="39.954" height="26.676" viewBox="0 0 39.954 26.676">
  <g id="Group_350" data-name="Group 350" transform="translate(-2452.034 9277.781)">
    <path id="Subtraction_1" data-name="Subtraction 1" d="M-1445.966-9694.567h-27.5V-9717H-1439v14.222h-2.5v-4.538h-29.466v10.25h25v2.5Zm-25-19.934v3.736h29.466v-3.736Z" transform="translate(3926 439.718)" fill="#d0dbe5" stroke="rgba(0,0,0,0)" stroke-miterlimit="10" stroke-width="1"/>
    <rect id="Rectangle_28" data-name="Rectangle 28" width="8.739" height="2.5" transform="translate(2472.699 -9263.56)" fill="#d0dbe5"/>
    <g id="noun-add-payment-3404129" transform="translate(2357.034 -9561.06)">
      <path id="Path_140" data-name="Path 140" d="M128.727,297.5a6.237,6.237,0,1,0,4.4,1.827A6.226,6.226,0,0,0,128.727,297.5Zm2.768,6.919h-2.076v2.076a.692.692,0,0,1-1.384,0v-2.076h-2.076a.692.692,0,0,1,0-1.384h2.076v-2.076a.692.692,0,0,1,1.384,0v2.076h2.076a.692.692,0,0,1,0,1.384Z" transform="translate(0)" fill="#72001c"/>
    </g>
  </g>
</svg>
