<svg xmlns="http://www.w3.org/2000/svg" width="46.747" height="50" viewBox="0 0 46.747 50">
  <g id="Untitled-1-01" transform="translate(-36.023 -36.51)" opacity="0.5">
    <path id="Path_19" data-name="Path 19" d="M296.3,60.734c-2.229,2.258-2.377,2.258-2.377.728s-.3-1.6-6.687-1.6H280.55v8.742h2.6c2.451,0,2.6-.149,2.6-2.55,0-2.258-.223-2.55-1.857-2.55-1.188,0-1.856-.438-1.856-1.092,0-.874,1.039-1.093,4.829-1.093h4.83v8.014c0,7.868.371,9.106,2.228,6.921a3.056,3.056,0,0,1,1.561-1.093c.3,0-.815,1.312-2.526,2.84-2.751,2.55-2.972,2.987-2.006,4.08a8.862,8.862,0,0,1,1.115,4.589c0,1.967.371,3.424.966,3.57.594.219.891-.511.891-2.331,0-2.332.152-2.623,1.115-1.821.815.655,1.114,2.55,1.114,7.724,0,5.609-.222,6.847-1.114,6.847q-1.115,0-1.115-2.185c0-2.769-1.337-2.914-1.63-.149-.226,1.676-.6,1.967-2.972,2.19l-2.823.218V96.354c0-3.5-.222-4.444-1.114-4.444s-1.12,1.019-1.12,5.1v5.1h2.3c2.005,0,2.229.149,1.412,1.092-.744.874-.744,1.312,0,2.259.892.947,1.114.947,2.08,0,.966-.874.966-1.312.152-2.186-.815-1.019-.446-1.165,3.269-1.165h4.16V94.537c0-4.3.3-7.868.743-8.087.446-.291.744,2.55.744,8.014,0,6.483.222,8.45.965,8.232.6-.218.966-3.059,1.115-9.834.151-7.427.446-9.762,1.338-10.418.965-.8.965-1.093,0-2.113-1.189-1.312-1.936-15.808-.892-17.484.445-.656,0-1.531-1.115-2.7L298.754,58.4Zm3.2,1.308c.222.364-.076.728-.744.728s-.965-.364-.743-.728c.223-.438.6-.728.743-.728S299.271,61.608,299.5,62.042Zm-2.229,2.189a1.574,1.574,0,0,1-.223,1.676A8.659,8.659,0,0,0,296,69.619c-.372,4.59-2.081,4.225-2.081-.437C293.923,64.667,295.778,61.9,297.266,64.231Zm-13,1.822a1.113,1.113,0,1,1-1.112-1.092A1.132,1.132,0,0,1,284.264,66.053Zm15.6,5.172c0,4.079-.223,5.464-.892,5.244-.6-.218-1.04-1.966-1.189-4.59-.222-4.516.076-6.195,1.338-6.195.445,0,.741,2.187.741,5.539ZM297.637,78.8a.738.738,0,0,1-.743.728.791.791,0,0,1-.744-.728.738.738,0,0,1,.744-.728.7.7,0,0,1,.745.643.612.612,0,0,1,0,.086Zm-2.969,2.626c0,.583-.3.874-.743.656a1.558,1.558,0,0,1-.744-1.166.729.729,0,0,1,.744-.655c.443,0,.741.506.741,1.164Zm5.5.365a.765.765,0,0,1-1.035.27.825.825,0,0,1-.079-.052.734.734,0,0,1-.275-1.015.686.686,0,0,1,.053-.077.767.767,0,0,1,1.035-.271.707.707,0,0,1,.078.052.748.748,0,0,1,.361.5.736.736,0,0,1-.135.595Zm-2.527,2.11a.738.738,0,0,1-.743.728.791.791,0,0,1-.743-.728.737.737,0,0,1,.743-.729.7.7,0,0,1,.743.646.562.562,0,0,1-.006.082Z" transform="translate(-220.497 -19.66)"/>
    <path id="Path_20" data-name="Path 20" d="M348.594,95.9a1.834,1.834,0,0,0,.6,1.857c.966.966,1.188.966,2.005,0a1.834,1.834,0,0,0,.446-1.936,1.92,1.92,0,0,0-3.047.074Z" transform="translate(-281.306 -52.63)"/>
    <path id="Path_21" data-name="Path 21" d="M164.74,402.787c-.668,1.709.966,2.972,2.378,1.783.892-.744.966-1.189.3-1.936C166.3,401.3,165.332,401.3,164.74,402.787Z" transform="translate(-115.725 -328.678)"/>
    <path id="Path_22" data-name="Path 22" d="M280.55,414.353c0,3.492.3,5.943.743,5.943s.744-2.452.744-5.943-.3-5.943-.744-5.943S280.55,410.861,280.55,414.353Z" transform="translate(-220.09 -334.953)"/>
    <path id="Path_4" data-name="Path 4" d="M200.34,212.727c0,1.263,1.63,1.04,2.081-.3.151-.521-.223-.892-.892-.892a1.175,1.175,0,0,0-1.189,1.157Z" transform="translate(-147.9 -157.54)" fill="#6f011c"/>
    <path id="Path_5" data-name="Path 5" d="M232.5,212.167c-.446.668,1.188,2.971,2.08,2.971.223,0,.3-.815.223-1.857C234.727,211.424,233.392,210.757,232.5,212.167Z" transform="translate(-176.784 -157.436)" fill="#6f011c"/>
    <path id="Path_6" data-name="Path 6" d="M260.443,213.028c-1.263.965-1.263,1.039-.075,1.114.668,0,1.263-.371,1.263-.743,0-.446.594-.371,1.486.151,1.56.966,2.675.446,1.857-.815C264.306,211.617,262.151,211.691,260.443,213.028Z" transform="translate(-201.175 -157.916)" fill="#6f011c"/>
    <path id="Path_7" data-name="Path 7" d="M320.648,212.655c.3.594.743,1.114,1.114,1.114s.669-.521.669-1.114a1.143,1.143,0,0,0-1.111-1.115C320.648,211.54,320.42,211.986,320.648,212.655Z" transform="translate(-256.108 -157.543)" fill="#6f011c"/>
    <path id="Path_8" data-name="Path 8" d="M283.292,234.163c-.223.371-.076.743.3.743a.815.815,0,0,0,.815-.743c0-.446-.152-.743-.3-.743C283.881,233.42,283.513,233.717,283.292,234.163Z" transform="translate(-222.46 -177.231)" fill="#6f011c"/>
    <path id="Path_9" data-name="Path 9" d="M200.936,243.69c-.815.815-.6,2.675.223,2.155a1.817,1.817,0,0,1,1.856.371c.892.743,1.115.669,1.115-.3a1.1,1.1,0,0,0-1.01-1.187h-.031a1.446,1.446,0,0,1-1.338-.815C201.6,243.538,201.233,243.387,200.936,243.69Z" transform="translate(-147.988 -186.344)" fill="#6f011c"/>
    <path id="Path_10" data-name="Path 10" d="M304.649,241.426c0,.371-.521.743-1.115.743s-1.115.372-1.115.815.668.594,1.63.222c1.487-.446,1.56-.371.669.743-1.04,1.263-.744,2.453.445,1.709.892-.594,1.114-4.977.223-4.977A.745.745,0,0,0,304.649,241.426Z" transform="translate(-239.799 -183.797)" fill="#6f011c"/>
    <path id="Path_11" data-name="Path 11" d="M241.691,252.789c-1.338.223-2.3,2.675-1.63,4.309.815,2.08,4.9,2.08,5.721-.075C246.737,254.347,244.657,252.118,241.691,252.789Z" transform="translate(-183.494 -194.597)" fill="#6f011c"/>
    <path id="Path_12" data-name="Path 12" d="M201.532,278.4c-.815,3.046-.446,6.908.6,6.908,1.337,0,1.411-.892.3-2.005-.6-.6-.371-1.262.743-2.377,2.006-2.006,1.936-2.229-.075-1.857-.966.152-1.263.152-.743-.152,1.039-.52,1.188-1.783.222-1.783C202.2,277.133,201.681,277.728,201.532,278.4Z" transform="translate(-148.584 -216.646)" fill="#6f011c"/>
    <path id="Path_13" data-name="Path 13" d="M302.42,292.641c0,.372.521.744,1.114.744a1.159,1.159,0,0,1,1.115,1.192c0,.594.371.892.743.668a1.867,1.867,0,0,0,.743-1.56c0-.6-.3-.966-.668-.668a.9.9,0,0,1-1.188-.376C303.683,291.68,302.42,291.68,302.42,292.641Z" transform="translate(-239.801 -229.904)" fill="#6f011c"/>
    <path id="Path_14" data-name="Path 14" d="M233.011,323.124c-1.114,1.189-.594,2.526.966,2.526.521,0,.892-.743.815-1.856C234.717,321.639,234.348,321.565,233.011,323.124Z" transform="translate(-176.774 -257.03)" fill="#6f011c"/>
    <path id="Path_15" data-name="Path 15" d="M283.279,321.633c.222.371.594.743.815.743.151,0,.3-.371.3-.743a.763.763,0,0,0-.781-.745h-.038C283.2,320.89,283.052,321.187,283.279,321.633Z" transform="translate(-222.447 -255.957)" fill="#6f011c"/>
    <path id="Path_16" data-name="Path 16" d="M261.717,331.439a.757.757,0,0,0,.144,1.061.83.83,0,0,0,.079.053.757.757,0,0,0,1.062-.144c.018-.025.037-.052.052-.078a.757.757,0,0,0-.144-1.062.82.82,0,0,0-.078-.053.757.757,0,0,0-1.062.145A.839.839,0,0,0,261.717,331.439Z" transform="translate(-203.001 -265.115)" fill="#6f011c"/>
    <path id="Path_17" data-name="Path 17" d="M283.144,336.6c-.744.892-.744,1.114.222,1.114a3.246,3.246,0,0,0,2.006-1.114c.743-.892.743-1.115-.222-1.115A3.247,3.247,0,0,0,283.144,336.6Z" transform="translate(-221.965 -269.108)" fill="#6f011c"/>
    <path id="Path_18" data-name="Path 18" d="M320.662,336.6c-.223.668,0,1.114.668,1.114a1.142,1.142,0,0,0,1.115-1.114c0-.6-.3-1.115-.669-1.115S320.958,336.011,320.662,336.6Z" transform="translate(-256.123 -269.108)" fill="#6f011c"/>
    <path id="Path_446" data-name="Path 446" d="M169.72,197.907l.223,5.274h19.98v-20.8H169.869v4.9m1.486,13.67v-8.024c0-4.457.222-8.32.521-8.618.3-.222,4.014-.371,8.32-.3l7.877.223.22,8.32.222,8.395Z" transform="translate(-120.514 -131.474)" fill="#6f011c"/>
    <path id="Path_1" data-name="Path 1" d="M165.239,37.331a1.31,1.31,0,0,0,2.005,1.63,1.426,1.426,0,0,0-.82-2.451A1.758,1.758,0,0,0,165.239,37.331Z" transform="translate(-116.146)"/>
    <path id="Path_2" data-name="Path 2" d="M244.09,49.783c0,3.492.3,5.943.743,5.943s.743-2.451.743-5.943-.3-5.943-.743-5.943S244.09,46.292,244.09,49.783Z" transform="translate(-187.274 -6.583)"/>
    <path id="Path_447" data-name="Path 447" d="M53.509,101.675c0,2.254.222,2.546,1.856,2.546,1.189,0,1.857.436,1.857,1.09,0,.8-.815,1.09-3.047,1.09-2.526,0-2.9-.148-2.228-1.017.668-.727.594-1.163-.223-1.9-1.114-.873-2.675-.436-2.675.728,0,.363.6.436,1.338.217,1.188-.437,1.188-.437,0,.727-2.446,2.4-2.825,1.457-2.825-6.833V90.255l-2,1.237c-1.63,1.018-1.486.655.892-1.746L49.3,86.818a8.834,8.834,0,0,0,0-1.2c-.022-.066-.319-.1-.546-.3-.6-.437-1.189-2.327-1.338-4.218-.223-3.781-2.08-5.236-2.08-1.6,0,1.31-.3,2.11-.744,1.818-.965-.583-.965-14.182-.075-14.182.371,0,.815.8.966,1.817.3,2.4,1.63,2.4,1.936,0,.223-1.527.6-1.817,2.823-1.817h2.526v4c0,3.055.222,4,1.114,4S55,74.122,55,70.412V65.673H41.624v7.563c0,10.909-1.411,10.619-1.63-.29-.157-7.053-.378-8.654-1.121-7.923-.669.654-.966,3.781-.966,10.181,0,7.346-.223,9.382-1.114,10.109-1.04.873-1.04,1.091.075,2.255.966,1.09,1.262,2.617,1.114,7.272-.151,3.708.152,6.255.744,6.909.668.8.594,1.309-.372,2.327-1.114,1.237-1.039,1.455.669,3.055l1.854,1.743,2.08-1.964c2.527-2.327,3.121-2.473,3.121-.51,0,1.382.521,1.455,6.686,1.455h6.69V99.13H56.48C53.583,99.13,53.509,99.2,53.509,101.675ZM44.987,86.042a.689.689,0,0,1,.053-.077.755.755,0,0,1,.46-.345.771.771,0,0,1,.575.075.706.706,0,0,1,.078.052.733.733,0,0,1,.275,1.013.69.69,0,0,1-.053.077h0a.755.755,0,0,1-.46.345.771.771,0,0,1-.575-.075.828.828,0,0,1-.079-.052A.733.733,0,0,1,44.987,86.042Zm-2.993-2.186a1.416,1.416,0,0,1,1.188-.728.68.68,0,0,1,.671.687v.041c0,.363-.521.727-1.188.727C42.069,84.583,41.772,84.22,41.994,83.856Zm-2.6,2.908a.737.737,0,0,1,.744-.727.71.71,0,0,1,.508.172.681.681,0,0,1,.234.473.573.573,0,0,1,0,.084h0a.736.736,0,0,1-.743.727A.792.792,0,0,1,39.393,86.763Zm2.231,18.617c0,.583-.371.873-.743.655a.876.876,0,0,1-.378-1.162c.67-1.014,1.121-.8,1.121.513Zm.6-8.578c-.152,2.4-.6,4.145-1.115,4.363-.743.218-.965-1.09-.965-4.945,0-4.655.151-5.164,1.114-4.364.887.728,1.111,2.037.962,4.946Zm.075-6.839a.743.743,0,0,1-.353-.451.727.727,0,0,1,.077-.563c.016-.026.034-.052.053-.077a.766.766,0,0,1,1.035-.269.7.7,0,0,1,.078.051.733.733,0,0,1,.272,1.013.6.6,0,0,1-.054.079h0a.766.766,0,0,1-1.034.264.59.59,0,0,1-.078-.048Zm2.525,13.022c-1.56,1.673-2.9.51-1.783-1.527a9.059,9.059,0,0,0,.815-3.634c0-3.563,1.115-3.345,1.63.291.374,2.759.225,3.777-.666,4.87Zm12.406-1.268v.03c0,1.237-1.63,1.017-2.08-.291-.152-.509.222-.873.892-.873a1.162,1.162,0,0,1,1.184,1.134Z" transform="translate(0 -25.462)"/>
  </g>
</svg>
